<?xml version="1.0" encoding="utf-8"?>
<!-- Generator: Adobe Illustrator 19.1.0, SVG Export Plug-In . SVG Version: 6.00 Build 0)  -->
<svg version="1.1" id="Layer_1" xmlns="http://www.w3.org/2000/svg" xmlns:xlink="http://www.w3.org/1999/xlink" x="0px" y="0px"
	 viewBox="0 0 114.504 21.096" style="enable-background:new 0 0 114.504 21.096;" xml:space="preserve">
<style type="text/css">
	.st0{fill:#EF4379;}
</style>
<g>
	<path class="st0" d="M11.137,14.784c-0.129,0.08-0.32,0.212-0.576,0.396c-0.256,0.185-0.588,0.364-0.996,0.54
		c-0.408,0.177-0.893,0.332-1.452,0.468c-0.561,0.136-1.2,0.204-1.92,0.204c-0.96,0-1.824-0.147-2.592-0.443
		c-0.769-0.296-1.42-0.708-1.956-1.236S0.7,13.548,0.421,12.804C0.141,12.06,0,11.24,0,10.344c0-0.784,0.133-1.54,0.396-2.268
		C0.66,7.348,1.04,6.712,1.536,6.168S2.641,5.188,3.36,4.86c0.72-0.328,1.536-0.492,2.448-0.492s1.712,0.16,2.399,0.48
		c0.688,0.32,1.269,0.765,1.74,1.332c0.472,0.568,0.828,1.248,1.068,2.04s0.359,1.66,0.359,2.604V11.4H3.36
		c0.016,0.608,0.284,1.14,0.804,1.596C4.685,13.452,5.4,13.68,6.313,13.68c0.896,0,1.624-0.132,2.184-0.396
		c0.561-0.264,0.968-0.492,1.225-0.684L11.137,14.784z M8.112,9.192c0-0.24-0.048-0.484-0.144-0.732
		c-0.097-0.248-0.24-0.476-0.433-0.684c-0.191-0.208-0.432-0.38-0.72-0.516C6.528,7.124,6.185,7.056,5.784,7.056
		c-0.399,0-0.752,0.068-1.056,0.204C4.424,7.396,4.172,7.568,3.973,7.776C3.772,7.984,3.62,8.212,3.517,8.46
		C3.412,8.708,3.36,8.952,3.36,9.192H8.112z"/>
	<path class="st0" d="M11.832,4.752h3.84l2.664,7.392l2.568-7.392h3.768l-4.824,11.256h-3.264L11.832,4.752z"/>
	<path class="st0" d="M36.337,14.784c-0.129,0.08-0.32,0.212-0.576,0.396c-0.256,0.185-0.588,0.364-0.996,0.54
		c-0.408,0.177-0.893,0.332-1.452,0.468c-0.561,0.136-1.2,0.204-1.92,0.204c-0.96,0-1.824-0.147-2.592-0.443
		c-0.769-0.296-1.42-0.708-1.956-1.236s-0.944-1.164-1.224-1.908c-0.28-0.744-0.421-1.563-0.421-2.46
		c0-0.784,0.133-1.54,0.396-2.268c0.264-0.728,0.644-1.364,1.14-1.908s1.104-0.98,1.824-1.308c0.72-0.328,1.536-0.492,2.448-0.492
		s1.712,0.16,2.399,0.48c0.688,0.32,1.269,0.765,1.74,1.332c0.472,0.568,0.828,1.248,1.068,2.04s0.359,1.66,0.359,2.604V11.4h-8.016
		c0.016,0.608,0.284,1.14,0.804,1.596c0.521,0.456,1.236,0.684,2.148,0.684c0.896,0,1.624-0.132,2.184-0.396
		c0.561-0.264,0.968-0.492,1.225-0.684L36.337,14.784z M33.313,9.192c0-0.24-0.048-0.484-0.144-0.732
		c-0.097-0.248-0.24-0.476-0.433-0.684c-0.191-0.208-0.432-0.38-0.72-0.516c-0.288-0.136-0.632-0.204-1.032-0.204
		c-0.399,0-0.752,0.068-1.056,0.204c-0.305,0.136-0.557,0.308-0.756,0.516c-0.2,0.208-0.353,0.436-0.456,0.684
		c-0.104,0.248-0.156,0.492-0.156,0.732H33.313z"/>
	<path class="st0" d="M38.808,4.752h3.313l0.096,1.224c0.368-0.448,0.852-0.808,1.452-1.08c0.6-0.272,1.228-0.408,1.884-0.408
		c1.296,0,2.324,0.384,3.084,1.152s1.14,1.904,1.14,3.408v6.96h-3.456v-6.48c0-0.624-0.155-1.12-0.468-1.488
		c-0.312-0.368-0.748-0.552-1.308-0.552c-0.384,0-0.721,0.068-1.008,0.204c-0.288,0.136-0.528,0.316-0.721,0.54
		c-0.191,0.224-0.336,0.484-0.432,0.78c-0.096,0.296-0.145,0.612-0.145,0.948v6.048h-3.432V4.752z"/>
	<path class="st0" d="M53.353,7.464h-1.776V4.752h1.776V1.344h3.456v3.408h2.903v2.712h-2.903v4.44c0,0.544,0.107,0.964,0.323,1.26
		c0.217,0.296,0.556,0.444,1.021,0.444c0.352,0,0.656-0.06,0.912-0.18s0.495-0.26,0.72-0.42l1.392,2.112
		c-1.088,0.863-2.271,1.296-3.552,1.296c-0.8,0-1.472-0.116-2.016-0.349c-0.544-0.231-0.984-0.552-1.32-0.96
		c-0.336-0.407-0.576-0.899-0.72-1.476c-0.145-0.576-0.216-1.216-0.216-1.92V7.464z"/>
	<path class="st0" d="M69.359,14.952c-0.384,0.448-0.868,0.792-1.452,1.031c-0.584,0.24-1.235,0.36-1.956,0.36
		c-0.399,0-0.819-0.057-1.26-0.168c-0.44-0.112-0.848-0.3-1.224-0.564c-0.376-0.264-0.688-0.619-0.937-1.067
		s-0.372-1.008-0.372-1.68c0-0.656,0.133-1.24,0.396-1.752c0.264-0.512,0.628-0.94,1.092-1.284c0.464-0.344,1.012-0.604,1.645-0.78
		c0.632-0.176,1.315-0.264,2.052-0.264c0.399,0,0.804,0.008,1.212,0.024c0.408,0.016,0.676,0.041,0.804,0.072V8.64
		c0-0.288-0.06-0.532-0.18-0.732c-0.12-0.2-0.28-0.368-0.48-0.504c-0.2-0.136-0.428-0.232-0.684-0.288
		c-0.256-0.056-0.528-0.084-0.816-0.084c-0.768,0-1.403,0.096-1.907,0.288c-0.505,0.192-0.933,0.408-1.284,0.648l-1.416-2.112
		c0.24-0.176,0.512-0.352,0.815-0.528c0.304-0.176,0.664-0.336,1.08-0.48s0.884-0.26,1.404-0.348
		c0.52-0.088,1.116-0.132,1.788-0.132c1.712,0,2.976,0.46,3.792,1.38c0.815,0.92,1.224,2.156,1.224,3.708v6.552h-3.239
		L69.359,14.952z M69.359,11.04c-0.08-0.016-0.231-0.036-0.456-0.06c-0.224-0.024-0.479-0.036-0.768-0.036
		c-0.96,0-1.641,0.136-2.04,0.408c-0.4,0.272-0.601,0.656-0.601,1.152c0,0.928,0.561,1.392,1.681,1.392
		c0.271,0,0.54-0.044,0.804-0.132c0.264-0.087,0.496-0.212,0.696-0.372c0.199-0.16,0.363-0.36,0.492-0.6
		c0.128-0.24,0.191-0.52,0.191-0.84V11.04z"/>
	<path class="st0" d="M75.433,0h3.455v16.008h-3.455V0z"/>
	<path class="st0" d="M81.816,17.784c0.191,0.144,0.403,0.271,0.636,0.384c0.231,0.111,0.483,0.168,0.756,0.168
		c0.368,0,0.676-0.116,0.924-0.348c0.248-0.232,0.483-0.629,0.708-1.188l0.336-0.912L80.04,4.752h3.936l2.809,7.104l2.544-7.104H93
		l-4.608,11.184c-0.256,0.624-0.508,1.244-0.756,1.86c-0.248,0.615-0.552,1.168-0.912,1.656c-0.359,0.487-0.8,0.884-1.319,1.188
		c-0.521,0.304-1.173,0.456-1.956,0.456c-0.608,0-1.16-0.08-1.656-0.24s-0.952-0.392-1.368-0.695L81.816,17.784z"/>
	<path class="st0" d="M95.424,12.528c0.368,0.336,0.853,0.616,1.452,0.84c0.6,0.225,1.18,0.336,1.74,0.336
		c0.512,0,0.936-0.063,1.271-0.192c0.336-0.128,0.504-0.375,0.504-0.744c0-0.144-0.035-0.276-0.107-0.396
		c-0.072-0.12-0.204-0.231-0.396-0.336c-0.191-0.104-0.46-0.212-0.804-0.324s-0.78-0.24-1.308-0.384
		c-0.433-0.112-0.86-0.26-1.284-0.444c-0.424-0.184-0.801-0.412-1.128-0.684c-0.328-0.272-0.593-0.6-0.792-0.984
		c-0.2-0.384-0.3-0.832-0.3-1.344c0-0.528,0.119-1.003,0.359-1.428c0.24-0.424,0.572-0.792,0.996-1.104s0.928-0.552,1.512-0.72
		s1.212-0.252,1.885-0.252c0.96,0,1.8,0.108,2.52,0.324c0.72,0.216,1.384,0.532,1.992,0.948l-1.464,2.28
		c-0.368-0.24-0.788-0.456-1.261-0.648c-0.472-0.192-1.004-0.288-1.596-0.288c-0.527,0-0.912,0.076-1.151,0.228
		c-0.24,0.152-0.36,0.356-0.36,0.612c0,0.368,0.248,0.64,0.744,0.816c0.495,0.176,1.168,0.376,2.016,0.6
		c1.152,0.32,1.988,0.76,2.508,1.32c0.521,0.561,0.78,1.305,0.78,2.232c0,0.624-0.141,1.16-0.42,1.607
		c-0.28,0.448-0.656,0.82-1.128,1.116c-0.473,0.297-1.008,0.517-1.608,0.66c-0.6,0.144-1.212,0.216-1.836,0.216
		c-1.008,0-1.96-0.136-2.855-0.408c-0.896-0.271-1.624-0.688-2.185-1.248L95.424,12.528z"/>
	<path class="st0" d="M106.681,7.464h-1.776V4.752h1.776V1.344h3.456v3.408h2.903v2.712h-2.903v4.44c0,0.544,0.107,0.964,0.323,1.26
		c0.217,0.296,0.556,0.444,1.021,0.444c0.352,0,0.656-0.06,0.912-0.18s0.495-0.26,0.72-0.42l1.392,2.112
		c-1.088,0.863-2.271,1.296-3.552,1.296c-0.8,0-1.472-0.116-2.016-0.349c-0.544-0.231-0.984-0.552-1.32-0.96
		c-0.336-0.407-0.576-0.899-0.72-1.476c-0.145-0.576-0.216-1.216-0.216-1.92V7.464z"/>
</g>
</svg>
